<svg width="22" height="22" viewBox="0 0 22 22" fill="none" xmlns="http://www.w3.org/2000/svg">
<path d="M5.50065 0.916748H2.75065C2.50754 0.916748 2.27438 1.01333 2.10247 1.18523C1.93056 1.35714 1.83398 1.5903 1.83398 1.83342C1.83398 2.07653 1.93056 2.30969 2.10247 2.4816C2.27438 2.65351 2.50754 2.75008 2.75065 2.75008H4.58398V15.5834C4.58398 15.8265 4.68056 16.0597 4.85247 16.2316C5.02438 16.4035 5.25754 16.5001 5.50065 16.5001H16.5007C16.6979 16.5001 16.8898 16.4365 17.048 16.3188C17.2062 16.201 17.3222 16.0354 17.3788 15.8465L20.1288 6.67984C20.1698 6.54297 20.1783 6.39841 20.1535 6.2577C20.1287 6.11699 20.0713 5.98402 19.986 5.86941C19.9007 5.75479 19.7898 5.66171 19.6621 5.59759C19.5344 5.53346 19.3935 5.50008 19.2507 5.50008H6.41732V1.83342C6.41732 1.5903 6.32074 1.35714 6.14883 1.18523C5.97692 1.01333 5.74377 0.916748 5.50065 0.916748ZM18.0187 7.33342L15.8187 14.6668H6.41732V7.33342H18.0187Z" fill="white"/>
<path d="M5.95899 20.1667C6.71838 20.1667 7.33399 19.5511 7.33399 18.7917C7.33399 18.0324 6.71838 17.4167 5.95899 17.4167C5.19959 17.4167 4.58398 18.0324 4.58398 18.7917C4.58398 19.5511 5.19959 20.1667 5.95899 20.1667Z" fill="white"/>
<path d="M15.125 20.1667C15.8844 20.1667 16.5 19.5511 16.5 18.7917C16.5 18.0324 15.8844 17.4167 15.125 17.4167C14.3656 17.4167 13.75 18.0324 13.75 18.7917C13.75 19.5511 14.3656 20.1667 15.125 20.1667Z" fill="white"/>
</svg>
