<svg width="18" height="18" viewBox="0 0 18 18"  xmlns="http://www.w3.org/2000/svg">
<path d="M17.25 8.99999C17.2529 10.8474 16.6356 12.6422 15.4971 14.0971C14.3586 15.5519 12.7647 16.5826 10.9708 17.0239C9.17691 17.4652 7.28681 17.2916 5.60328 16.531C3.91975 15.7704 2.54022 14.4668 1.68569 12.8289C0.831152 11.191 0.551066 9.31378 0.890295 7.49781C1.22952 5.68185 2.16844 4.03228 3.55663 2.81338C4.94482 1.59447 6.70194 0.876756 8.54653 0.77521C10.3911 0.673663 12.2164 1.19416 13.73 2.25332L13.6292 1.95999C13.5514 1.72295 13.5709 1.46472 13.6835 1.2421C13.7961 1.01947 13.9925 0.850702 14.2296 0.772905C14.4666 0.695108 14.7249 0.71466 14.9475 0.82726C15.1701 0.93986 15.3389 1.13628 15.4167 1.37332L16.3333 4.12332C16.3788 4.26117 16.3909 4.40785 16.3686 4.55128C16.3462 4.69471 16.2902 4.83079 16.205 4.94832C16.1163 5.07328 15.9976 5.174 15.8599 5.24126C15.7222 5.30852 15.5698 5.34017 15.4167 5.33332H12.6667C12.4236 5.33332 12.1904 5.23674 12.0185 5.06484C11.8466 4.89293 11.75 4.65977 11.75 4.41666C11.7533 4.22263 11.8181 4.03466 11.9351 3.87982C12.052 3.72497 12.2151 3.61124 12.4008 3.55499C11.195 2.80134 9.77297 2.46958 8.35812 2.61183C6.94327 2.75407 5.61574 3.36226 4.58406 4.34087C3.55238 5.31948 2.87499 6.61307 2.65828 8.01844C2.44158 9.42382 2.69784 10.8614 3.38682 12.1053C4.0758 13.3492 5.15845 14.3291 6.46474 14.8909C7.77103 15.4527 9.22693 15.5647 10.6038 15.2093C11.9806 14.8539 13.2004 14.0512 14.0716 12.9273C14.9427 11.8034 15.4159 10.422 15.4167 8.99999C15.4167 8.75687 15.5132 8.52372 15.6852 8.35181C15.8571 8.1799 16.0902 8.08332 16.3333 8.08332C16.5765 8.08332 16.8096 8.1799 16.9815 8.35181C17.1534 8.52372 17.25 8.75687 17.25 8.99999Z" />
</svg>
