<svg width="22" height="22" viewBox="0 0 22 22" fill="none" xmlns="http://www.w3.org/2000/svg">
<path d="M10.9995 5.0271C8.79387 5.0271 7.00586 6.81512 7.00586 9.02075C7.00586 11.2264 8.79387 13.0144 10.9995 13.0144C13.2051 13.0144 14.9931 11.2264 14.9931 9.02075C14.9931 6.81512 13.2051 5.0271 10.9995 5.0271ZM10.9995 11.0176C9.89671 11.0176 9.0027 10.1235 9.0027 9.02075C9.0027 7.91795 9.89671 7.02395 10.9995 7.02395C12.1023 7.02395 12.9963 7.91795 12.9963 9.02075C12.9963 10.1235 12.1023 11.0176 10.9995 11.0176Z" fill="white"/>
<path d="M19.9772 9.0007C19.9905 4.04298 15.9822 0.0132657 11.0245 3.26719e-05C6.0668 -0.0132004 2.03708 3.99507 2.02384 8.95274C1.98073 14.6099 5.3638 19.7311 10.5842 21.9111C10.7147 21.9701 10.8563 22.0005 10.9995 21.9999C11.1438 22.0002 11.2864 21.9695 11.4179 21.9101C16.6217 19.737 20.0012 14.64 19.9772 9.0007ZM10.9996 19.9033C6.69653 18.0088 3.94644 13.7217 4.01866 9.02063C4.01866 5.1652 7.14412 2.03974 10.9996 2.03974C14.855 2.03974 17.9805 5.1652 17.9805 9.02063V9.08554C18.0299 13.7641 15.283 18.0209 10.9996 19.9033Z" fill="white"/>
</svg>
