<svg width="18" height="18" viewBox="0 0 18 18" fill="none" xmlns="http://www.w3.org/2000/svg">
<path d="M16.7388 0.0762989L0.538769 7.02341C0.0852435 7.22682 -0.117545 7.75936 0.0858672 8.21288C0.210105 8.48993 0.465715 8.68567 0.76557 8.73338L8.19779 9.79539L9.25979 17.2276C9.33035 17.7196 9.78641 18.0613 10.2785 17.9907C10.5892 17.9462 10.8542 17.7429 10.9779 17.4544L17.9205 1.25439C18.1162 0.797518 17.9046 0.268445 17.4477 0.0727125C17.2213 -0.0242375 16.9651 -0.0242375 16.7388 0.0727125V0.0762989ZM10.5873 13.7986L9.88438 8.87559C9.82766 8.47995 9.51681 8.16911 9.12117 8.11239L4.19726 7.40949L15.3834 2.61341L10.5873 13.7986Z" fill="white"/>
</svg>
