<svg width="18" height="18" viewBox="0 0 18 18" xmlns="http://www.w3.org/2000/svg">
<path d="M0.227093 6.4326C1.31413 10.7513 7.24984 16.6911 11.5677 17.7732C12.1506 17.921 12.7495 17.9963 13.3508 17.9974C14.4935 17.9968 15.6186 17.716 16.6274 17.1794C17.8727 16.529 18.3549 14.9923 17.7045 13.747C17.5857 13.5197 17.4333 13.3116 17.2523 13.1299L15.5461 11.4237C14.8063 10.6837 13.6888 10.4724 12.73 10.8912C12.2825 11.0841 11.8744 11.3577 11.526 11.6985C11.3804 11.8432 11.1121 11.8662 10.7269 11.7615C8.68648 10.9322 7.06767 9.31375 6.23809 7.27349C6.13503 6.88824 6.15628 6.61913 6.30189 6.47437C6.64282 6.12569 6.91674 5.71731 7.11 5.26957C7.5277 4.31086 7.31648 3.1942 6.57752 2.45425L4.87131 0.748855C4.30453 0.175098 3.49639 -0.0909306 2.69968 0.0339176C1.89398 0.152247 1.19413 0.650365 0.818421 1.37288C-0.00545649 2.92587 -0.216501 4.73149 0.227093 6.4326ZM2.26863 2.13193C2.40407 1.87267 2.65565 1.69411 2.94506 1.65181C2.99023 1.64462 3.03589 1.64104 3.08167 1.64118C3.31953 1.64111 3.54751 1.73623 3.71473 1.90537L5.42013 3.61076C5.68254 3.87013 5.76006 4.26338 5.61562 4.60292C5.50391 4.8692 5.34452 5.11287 5.14531 5.3219C4.54863 5.95758 4.36186 6.8756 4.66275 7.69391C5.2533 9.90232 8.10216 12.7479 10.3065 13.3377C11.1281 13.6376 12.0486 13.4476 12.6842 12.8469C12.892 12.6479 13.1342 12.4883 13.3991 12.3758C13.7388 12.231 14.1325 12.3085 14.392 12.5713L16.0974 14.2767C16.3008 14.4779 16.3951 14.7645 16.351 15.0472C16.3079 15.337 16.128 15.5884 15.8676 15.7228C14.6732 16.3643 13.2793 16.5269 11.9693 16.1775C8.25263 15.2524 2.74875 9.74852 1.81306 6.03347C1.46381 4.72228 1.62671 3.32734 2.26863 2.13193Z" />
<path d="M16.2772 9.73861C16.6851 9.93226 17.1728 9.75874 17.3666 9.35093C18.9157 6.08592 17.5246 2.18331 14.2596 0.634292C12.4834 -0.208399 10.4224 -0.207832 8.64669 0.635886C8.23423 0.820112 8.04919 1.30381 8.23342 1.71626C8.41764 2.12872 8.90134 2.31376 9.31379 2.12953C9.32549 2.12432 9.33704 2.11883 9.34844 2.11306C11.7967 0.950168 14.7241 1.99211 15.887 4.44036C16.5199 5.77277 16.5199 7.3192 15.887 8.65161C15.6953 9.05953 15.8698 9.54564 16.2772 9.73861Z" />
<path d="M12.6085 8.8617C12.9279 9.18101 13.4456 9.18101 13.765 8.8617C15.0422 7.5841 15.0422 5.51308 13.765 4.23548C12.4709 2.99865 10.4329 2.99865 9.13878 4.23548C8.82496 4.56039 8.83396 5.07821 9.1589 5.39203C9.47588 5.69816 9.97839 5.69816 10.2954 5.39203C10.9425 4.77381 11.9614 4.77381 12.6085 5.39203C13.2471 6.03083 13.2471 7.06632 12.6085 7.70515C12.2879 8.02337 12.2837 8.53899 12.6019 8.85961C12.6033 8.86106 12.6047 8.86252 12.6085 8.8617Z" />
</svg>
