<svg width="10" height="12" viewBox="0 0 10 12" fill="none" xmlns="http://www.w3.org/2000/svg">
<path d="M9.72436 7.02583C9.5869 5.23617 8.75365 4.11466 8.01855 3.12499C7.33788 2.20877 6.75 1.41757 6.75 0.250428C6.75 0.156678 6.6975 0.0709907 6.61425 0.0280298C6.53074 -0.015189 6.43041 -0.00811086 6.35449 0.047061C5.25049 0.837045 4.32935 2.16851 4.00758 3.43891C3.7842 4.32337 3.75464 5.31768 3.75049 5.97438C2.73096 5.75662 2.50001 4.23159 2.49757 4.21497C2.48609 4.13587 2.43776 4.06704 2.36745 4.02944C2.29641 3.99234 2.2129 3.98965 2.14088 4.02529C2.08741 4.05117 0.828609 4.69078 0.755367 7.24455C0.750234 7.32951 0.75 7.41473 0.75 7.49993C0.75 9.98095 2.76879 11.9996 5.25 11.9996C5.25342 11.9999 5.25708 12.0003 5.26001 11.9996C5.26099 11.9996 5.26195 11.9996 5.26317 11.9996C7.73829 11.9925 9.75 9.97656 9.75 7.49993C9.75 7.37517 9.72436 7.02583 9.72436 7.02583ZM5.25 11.4997C4.42284 11.4997 3.75 10.7829 3.75 9.90187C3.75 9.87185 3.74977 9.84156 3.75195 9.80446C3.76195 9.43291 3.83252 9.17927 3.90991 9.01056C4.05495 9.32207 4.31421 9.60843 4.73536 9.60843C4.87355 9.60843 4.98537 9.49661 4.98537 9.35845C4.98537 9.00253 4.9927 8.5919 5.08132 8.22131C5.16019 7.89271 5.34865 7.54312 5.58743 7.26288C5.69362 7.62663 5.90067 7.92103 6.10282 8.20837C6.39213 8.61946 6.6912 9.0445 6.7437 9.76931C6.74686 9.81227 6.75005 9.85549 6.75005 9.90187C6.75 10.7829 6.07716 11.4997 5.25 11.4997Z" fill="white"/>
</svg>
