<svg width="25" height="25" viewBox="0 0 25 25" fill="none" xmlns="http://www.w3.org/2000/svg">
<path d="M22.1689 8.94238H21.5686V6.04588C21.5686 6.02782 21.5658 6.00963 21.5637 5.99116C21.5627 5.87626 21.5259 5.76332 21.4471 5.67381L16.6268 0.167657C16.6253 0.166244 16.6239 0.165742 16.6229 0.164238C16.5942 0.132138 16.5607 0.105418 16.5252 0.0823468C16.5147 0.075325 16.5042 0.069443 16.4932 0.063242C16.4625 0.0465993 16.4299 0.0326013 16.3965 0.0225245C16.3873 0.0201535 16.3792 0.0164146 16.3702 0.0140436C16.3337 0.00538035 16.2959 0 16.2577 0H4.41154C3.87064 0 3.43118 0.439958 3.43118 0.98041V8.9421H2.83095C2.05714 8.9421 1.42969 9.56933 1.42969 10.3434V17.6302C1.42969 18.4036 2.05714 19.0315 2.83095 19.0315H3.43118V24.0196C3.43118 24.5601 3.87064 25 4.41154 25H20.588C21.1284 25 21.5684 24.5601 21.5684 24.0196V19.0315H22.1687C22.9423 19.0315 23.5698 18.4039 23.5698 17.6303V10.3437C23.5698 9.56937 22.9427 8.94238 22.1689 8.94238ZM4.41154 0.98041H15.7675V5.99627C15.7675 6.26711 15.9871 6.48647 16.2577 6.48647H20.588V8.94233H4.41154V0.98041ZM14.3433 14.3474C13.3801 14.0118 12.7516 13.479 12.7516 12.6355C12.7516 11.6461 13.5773 10.8893 14.9455 10.8893C15.5989 10.8893 16.081 11.0267 16.4247 11.1817L16.1324 12.2395C15.9003 12.128 15.4874 11.9643 14.9196 11.9643C14.3519 11.9643 14.0767 12.2224 14.0767 12.5235C14.0767 12.8936 14.4036 13.0568 15.1518 13.3407C16.1753 13.7194 16.6571 14.2526 16.6571 15.0697C16.6571 16.042 15.9086 16.8678 14.3172 16.8678C13.6549 16.8678 13.0012 16.696 12.6743 16.515L12.9407 15.4312C13.2936 15.6117 13.8356 15.7927 14.3946 15.7927C14.9973 15.7927 15.3151 15.5433 15.3151 15.1646C15.3153 14.8036 15.0401 14.5967 14.3433 14.3474ZM12.1246 15.6805V16.782H8.50248V10.9833H9.81916V15.6805H12.1246ZM4.29664 16.782H2.7999L4.47729 13.8478L2.85986 10.9831H4.36549L4.87275 12.0414C5.04483 12.3941 5.17396 12.6776 5.31175 13.005H5.32848C5.4665 12.635 5.57821 12.377 5.72403 12.0414L6.21446 10.9831H7.71125L6.07672 13.8131L7.79752 16.7815H6.28363L5.75859 15.7318C5.54388 15.328 5.40613 15.0266 5.24263 14.6911H5.22553C5.10493 15.0266 4.95902 15.328 4.77818 15.7318L4.29664 16.782ZM20.588 23.7542H4.41154V19.0315H20.588V23.7542H20.588ZM20.5969 16.782L20.072 15.7323C19.857 15.3282 19.7194 15.0271 19.5559 14.6916H19.5392C19.4185 15.0271 19.2721 15.3282 19.0911 15.7323L18.61 16.782H17.1128L18.7902 13.8478L17.1729 10.9831H18.6785L19.1864 12.0414C19.3583 12.3941 19.487 12.6776 19.6249 13.005H19.6421C19.7795 12.635 19.891 12.377 20.0375 12.0414L20.5277 10.9831H22.0249L20.3903 13.8131L22.1108 16.7815H20.5969V16.782Z" fill="white"/>
</svg>
