<svg width="10" height="10" viewBox="0 0 10 10" fill="none" xmlns="http://www.w3.org/2000/svg">
<g opacity="0.9">
<path d="M7.43276 6.10228C8.37612 4.55786 8.1846 2.51019 6.85004 1.17359C5.28525 -0.391198 2.73839 -0.391198 1.17359 1.17359C-0.391198 2.73839 -0.391198 5.28525 1.17359 6.848C2.50815 8.18256 4.55583 8.37408 6.10228 7.43072L8.39446 9.7229C8.76121 10.0896 9.35819 10.0896 9.72494 9.7229C10.0917 9.35615 10.0917 8.75917 9.72494 8.39242L7.43276 6.10228ZM6.02078 6.02078C4.91239 7.12918 3.11125 7.12918 2.00489 6.02078C0.896496 4.91239 0.896496 3.11125 2.00489 2.00489C3.11328 0.896495 4.91443 0.896495 6.02078 2.00489C7.12714 3.11125 7.12714 4.91239 6.02078 6.02078ZM4.48248 3.50244H5.69275V4.42543H4.48248V5.6357H3.55949V4.42543H2.35126V3.50244H3.56153V2.29218H4.48452V3.50244H4.48248Z" fill="white"/>
</g>
</svg>
