<svg width="42" height="42" viewBox="0 0 42 42" fill="none" xmlns="http://www.w3.org/2000/svg">
<g filter="url(#filter0_d_19_775)">
<circle cx="21" cy="19" r="19" fill="#1890FF"/>
<circle cx="21" cy="19" r="18" stroke="white" stroke-width="2"/>
</g>
<path d="M18.8082 18.533L14.4746 14.1919C14.3509 14.068 14.186 14 14.0102 14C13.8342 14 13.6694 14.0681 13.5457 14.1919L13.1522 14.5862C13.0286 14.7099 12.9605 14.8751 12.9605 15.0513C12.9605 15.2274 13.0286 15.3982 13.1522 15.522L15.6804 18.06H7.64829C7.28614 18.06 7 18.344 7 18.7068V19.2642C7 19.627 7.28614 19.9396 7.64829 19.9396H15.7091L13.1523 22.4918C13.0287 22.6157 12.9606 22.7765 12.9606 22.9527C12.9606 23.1287 13.0287 23.2918 13.1523 23.4156L13.5458 23.8086C13.6695 23.9325 13.8343 24 14.0103 24C14.1861 24 14.351 23.9316 14.4747 23.8077L18.8083 19.4667C18.9323 19.3424 19.0005 19.1765 19 19.0001C19.0004 18.8231 18.9323 18.6571 18.8082 18.533Z" fill="white"/>
<rect x="20" y="10" width="2" height="18" rx="1" fill="white"/>
<path d="M23.1918 18.533L27.5254 14.1919C27.6491 14.068 27.814 14 27.9898 14C28.1658 14 28.3306 14.0681 28.4543 14.1919L28.8478 14.5862C28.9714 14.7099 29.0395 14.8751 29.0395 15.0513C29.0395 15.2274 28.9714 15.3982 28.8478 15.522L26.3196 18.06H34.3517C34.7139 18.06 35 18.344 35 18.7068V19.2642C35 19.627 34.7139 19.9396 34.3517 19.9396H26.2909L28.8477 22.4918C28.9713 22.6157 29.0394 22.7765 29.0394 22.9527C29.0394 23.1287 28.9713 23.2918 28.8477 23.4156L28.4542 23.8086C28.3305 23.9325 28.1657 24 27.9897 24C27.8139 24 27.649 23.9316 27.5253 23.8077L23.1917 19.4667C23.0677 19.3424 22.9995 19.1765 23 19.0001C22.9996 18.8231 23.0677 18.6571 23.1918 18.533Z" fill="white"/>
<defs>
<filter id="filter0_d_19_775" x="0" y="0" width="42" height="42" filterUnits="userSpaceOnUse" color-interpolation-filters="sRGB">
<feFlood flood-opacity="0" result="BackgroundImageFix"/>
<feColorMatrix in="SourceAlpha" type="matrix" values="0 0 0 0 0 0 0 0 0 0 0 0 0 0 0 0 0 0 127 0" result="hardAlpha"/>
<feOffset dy="2"/>
<feGaussianBlur stdDeviation="1"/>
<feComposite in2="hardAlpha" operator="out"/>
<feColorMatrix type="matrix" values="0 0 0 0 0 0 0 0 0 0 0 0 0 0 0 0 0 0 0.15 0"/>
<feBlend mode="normal" in2="BackgroundImageFix" result="effect1_dropShadow_19_775"/>
<feBlend mode="normal" in="SourceGraphic" in2="effect1_dropShadow_19_775" result="shape"/>
</filter>
</defs>
</svg>
