<?xml version="1.0" encoding="utf-8"?><svg viewBox="0 0 22 22" xmlns="http://www.w3.org/2000/svg" xmlns:xlink="http://www.w3.org/1999/xlink"><style>:root>svg{display:none}:root>svg:target{display:block}</style><svg fill="none" viewBox="0 0 22 22" id="cart" xmlns="http://www.w3.org/2000/svg"><path d="M5.5.917H2.75a.917.917 0 000 1.833h1.834v12.833a.917.917 0 00.917.917h11a.917.917 0 00.878-.653l2.75-9.167a.917.917 0 00-.878-1.18H6.417V1.833a.917.917 0 00-.916-.916zM18.02 7.333l-2.2 7.334H6.417V7.333H18.02zM5.959 20.167a1.375 1.375 0 100-2.75 1.375 1.375 0 000 2.75zM15.125 20.167a1.375 1.375 0 100-2.75 1.375 1.375 0 000 2.75z" fill="#fff"/></svg><svg viewBox="0 0 18 18" id="circle-arrow" xmlns="http://www.w3.org/2000/svg"><path d="M17.25 9a8.25 8.25 0 11-3.52-6.747l-.1-.293a.94.94 0 111.787-.587l.916 2.75a.916.916 0 01-.128.825.916.916 0 01-.788.385h-2.75a.917.917 0 01-.917-.916.916.916 0 01.65-.862A6.416 6.416 0 1015.418 9a.916.916 0 111.833 0z"/></svg><svg viewBox="0 0 22 22" id="location" xmlns="http://www.w3.org/2000/svg"><path d="M11 5.027a3.994 3.994 0 100 7.987 3.994 3.994 0 000-7.987zm0 5.99a1.997 1.997 0 110-3.993 1.997 1.997 0 010 3.994z"/><path d="M19.977 9a8.977 8.977 0 10-17.953-.047 13.928 13.928 0 008.56 12.958 1.011 1.011 0 00.834-.001A13.926 13.926 0 0019.978 9zM11 19.904A11.694 11.694 0 014.019 9.021a6.98 6.98 0 0113.961 0v.065A11.682 11.682 0 0111 19.903z"/></svg><svg fill="none" viewBox="0 0 18 18" id="map" xmlns="http://www.w3.org/2000/svg"><path d="M16.739.076L.539 7.023a.9.9 0 00.227 1.71l7.432 1.062 1.062 7.433a.9.9 0 001.718.226l6.943-16.2A.9.9 0 0016.739.073v.003zM10.587 13.8l-.703-4.923a.9.9 0 00-.763-.764L4.197 7.41l11.186-4.796L10.587 13.8z" fill="#fff"/></svg><svg viewBox="0 0 18 18" id="phone" xmlns="http://www.w3.org/2000/svg"><path d="M.227 6.433c1.087 4.318 7.023 10.258 11.34 11.34a7.31 7.31 0 001.784.224 6.985 6.985 0 003.276-.818 2.544 2.544 0 00.625-4.05l-1.706-1.705a2.543 2.543 0 00-2.816-.533 3.968 3.968 0 00-1.204.807c-.146.145-.414.168-.8.063a8.164 8.164 0 01-4.488-4.488c-.103-.385-.082-.654.064-.799.34-.348.615-.757.808-1.204a2.545 2.545 0 00-.532-2.816L4.87.75A2.507 2.507 0 002.7.034 2.536 2.536 0 00.818 1.373a7.018 7.018 0 00-.59 5.06zM2.27 2.132a.912.912 0 011.446-.227L5.42 3.611a.9.9 0 01.196.992c-.112.266-.271.51-.47.719a2.304 2.304 0 00-.483 2.372c.59 2.208 3.44 5.054 5.643 5.644.822.3 1.743.11 2.378-.491.208-.2.45-.359.715-.471a.9.9 0 01.993.195l1.705 1.706a.89.89 0 01.254.77.911.911 0 01-.483.676 5.334 5.334 0 01-3.899.454C8.253 15.252 2.75 9.75 1.813 6.033a5.341 5.341 0 01.456-3.901zM16.277 9.739a.818.818 0 001.09-.388A6.543 6.543 0 008.647.636a.818.818 0 10.701 1.477 4.908 4.908 0 016.539 6.539.818.818 0 00.39 1.087z"/><path d="M12.608 8.862c.32.319.838.319 1.157 0a3.272 3.272 0 000-4.627 3.348 3.348 0 00-4.626 0 .818.818 0 001.156 1.157 1.674 1.674 0 012.313 0 1.636 1.636 0 010 2.313.815.815 0 00-.006 1.155c.001.001.003.003.006.002z"/></svg></svg>