<svg width="13" height="13" viewBox="0 0 13 13" fill="none" xmlns="http://www.w3.org/2000/svg">
<path d="M2.88834 5.99274L8.6735 0.207681C8.80731 0.0737718 8.98592 0 9.17638 0C9.36683 0 9.54545 0.0737718 9.67925 0.207681L10.1053 0.633613C10.3825 0.911155 10.3825 1.36224 10.1053 1.63936L5.24734 6.4973L10.1107 11.3606C10.2445 11.4945 10.3184 11.6731 10.3184 11.8634C10.3184 12.054 10.2445 12.2325 10.1107 12.3665L9.68464 12.7923C9.55073 12.9262 9.37222 13 9.18177 13C8.99131 13 8.8127 12.9262 8.67889 12.7923L2.88834 7.00198C2.75422 6.86764 2.68055 6.68829 2.68097 6.49762C2.68055 6.30622 2.75422 6.12697 2.88834 5.99274Z" fill="#0C151E"/>
</svg>
